# xmcd
#
# Track frame offsets:
#	150
#	13728
#	25329
#	44365
#	58601
#	68531
#	79056
#	92716
#	112424
#	118911
#	135733
#	154708
#	164189
#	170567
#	179605
#	199368
#	212523
#	228103
#	240358
#	252698
#	269789
#	291425
#	310046
#	325591
#
# Disc length: 4518 seconds
#
# Revision: 2
# Processed by: cddbd v1.5.2PL0 Copyright (c) Steve Scherf et al.
# Submitted via: audiograbber 1.83.01
#
DISCID=6a11a418
DTITLE=Bobby Bare - Drunk and Crazy ... Plus
DYEAR=1900
DGENRE=Country
TTITLE0=Drunk and Crazy
TTITLE1=Food Blues
TTITLE2=The World's Last Truck Drivin' Man
TTITLE3=I Can Almost See Houston From Here
TTITLE4=If That Ain't Love
TTITLE5=Rock And Roll Hotel
TTITLE6=Song Of The South
TTITLE7=Appaloosa Rider
TTITLE8=Bathroom Tissue Paper Letter
TTITLE9=Willie Jones
TTITLE10=Gotta Get Rid Of This Band
TTITLE11=Drinkin' And Druggin' And Watchin' TV
TTITLE12=Your Credit Card Won't Get You Into Heaven
TTITLE13=I've Never Gone To Bed With An Ugly Woman
TTITLE14=Desperados Waiting For The Train
TTITLE15=Greasy Grit Gravy
TTITLE16=New Cut Road
TTITLE17=If You Ain't Got Nothin' ( You Ain't Got Nothin' To Lose)
TTITLE18=Praise The Lord And Send Me The Money
TTITLE19=(they Covered Up)the Old Swimmin' Hole
TTITLE20=Me And Jimmy Rogers
TTITLE21=The Jogger
TTITLE22=No More Memories Hangin' Round
TTITLE23=It's A Dirty Job
EXTD=
EXTT0=
EXTT1=
EXTT2=
EXTT3=
EXTT4=
EXTT5=
EXTT6=
EXTT7=
EXTT8=
EXTT9=
EXTT10=
EXTT11=
EXTT12=
EXTT13=
EXTT14=
EXTT15=
EXTT16=
EXTT17=
EXTT18=
EXTT19=
EXTT20=
EXTT21=
EXTT22=
EXTT23=
PLAYORDER=
